<svg width="28" height="28" viewBox="0 0 28 28" fill="none" xmlns="http://www.w3.org/2000/svg">
<path d="M24.9737 10.5178C23.7869 9.17759 22.0885 8.37891 20.3134 8.32586C20.0146 8.31678 19.721 8.33016 19.4335 8.3641C19.4664 8.02952 19.4726 7.68778 19.4493 7.34269C19.3306 5.58618 18.4969 3.99457 17.1613 2.97603C15.605 1.78925 13.9358 1.37916 12.022 1.62292C10.1235 1.86429 7.98567 2.72701 5.99181 4.3626L23.4532 22.1241C25.1582 20.1339 26.1048 17.7255 26.3589 15.8017C26.6273 13.7708 26.2474 11.956 24.9737 10.5178ZM23.1567 12.1357C24.6849 13.6179 24.4942 15.8643 23.099 18.3162L17.2109 12.412C17.2109 12.412 20.3201 9.38454 23.1567 12.1357ZM15.6908 4.9156C18.107 7.28438 15.493 10.6889 15.493 10.6889L9.70878 4.8592C11.5878 3.85214 14.0325 3.29005 15.6908 4.9156Z" fill="#F1F2F4"/>
<path d="M4.60283 10.4423C4.8607 9.74397 5.19579 9.07626 5.60476 8.44917L3.86735 6.68071C3.14998 7.68491 2.59038 8.78231 2.20095 9.94233L4.60283 10.4423Z" fill="#F1F2F4"/>
<path d="M19.3687 22.4601C15.4916 24.9083 10.2951 24.4423 6.92129 21.0597C5.02515 19.1584 3.98079 16.6304 3.98079 13.9414C3.98079 13.625 3.99557 13.3105 4.02417 12.9994L1.63278 12.5009C1.57892 12.9755 1.55127 13.4563 1.55127 13.941C1.55127 17.2805 2.84825 20.4207 5.20342 22.7823C7.55858 25.1439 10.6897 26.4444 14.0201 26.4444C16.5898 26.4444 19.0408 25.6692 21.108 24.2305L19.3687 22.4601Z" fill="#F1F2F4"/>
</svg>
